<?xml version="1.0" standalone="no"?>
<!DOCTYPE svg PUBLIC "-//W3C//DTD SVG 20010904//EN"
 "http://www.w3.org/TR/2001/REC-SVG-20010904/DTD/svg10.dtd">
<svg version="1.0" xmlns="http://www.w3.org/2000/svg"
 width="193.000000pt" height="193.000000pt" viewBox="0 0 193.000000 193.000000"
 preserveAspectRatio="xMidYMid meet">
<metadata>
Created by potrace 1.16, written by Peter Selinger 2001-2019
</metadata>
<g transform="translate(0.000000,193.000000) scale(0.100000,-0.100000)"
fill="#000000" stroke="none">
<path d="M845 1921 c-292 -48 -522 -189 -669 -409 -124 -186 -170 -337 -169
-552 1 -161 27 -279 92 -412 135 -274 354 -447 669 -524 109 -27 312 -23 437
10 345 90 603 345 698 689 18 69 22 107 22 242 0 180 -17 266 -80 402 -67 146
-199 303 -329 392 -78 54 -225 118 -322 140 -102 24 -273 34 -349 22z m505
-448 c0 -78 -2 -90 -24 -112 -141 -151 -268 -380 -331 -596 -31 -108 -65 -298
-65 -366 l0 -49 -110 0 -110 0 0 44 c0 104 45 324 100 487 35 102 116 262 185
364 l64 95 -264 0 -265 0 0 110 0 110 410 0 410 0 0 -87z"/>
</g>
</svg>
