<?xml version="1.0" standalone="no"?>
<!DOCTYPE svg PUBLIC "-//W3C//DTD SVG 20010904//EN"
 "http://www.w3.org/TR/2001/REC-SVG-20010904/DTD/svg10.dtd">
<svg version="1.0" xmlns="http://www.w3.org/2000/svg"
 width="193.000000pt" height="193.000000pt" viewBox="0 0 193.000000 193.000000"
 preserveAspectRatio="xMidYMid meet">
<metadata>
Created by potrace 1.16, written by Peter Selinger 2001-2019
</metadata>
<g transform="translate(0.000000,193.000000) scale(0.100000,-0.100000)"
fill="#000000" stroke="none">
<path d="M835 1920 c-164 -23 -344 -96 -448 -180 -76 -62 -147 -125 -147 -132
0 -9 -55 -83 -88 -118 -12 -13 -40 -60 -62 -105 -100 -205 -112 -550 -28 -775
23 -59 82 -168 102 -185 7 -5 31 -35 54 -66 40 -53 117 -130 173 -172 38 -29
156 -97 169 -97 6 0 21 -6 33 -14 12 -8 67 -27 122 -42 85 -22 120 -26 240
-27 119 0 154 4 235 26 202 54 270 93 445 256 125 116 193 225 230 364 10 37
21 67 25 67 14 0 35 155 34 250 0 91 -20 230 -34 240 -3 3 -17 41 -29 85 -33
112 -101 223 -196 320 -154 156 -281 233 -461 279 -111 28 -274 40 -369 26z
m320 -980 l0 -615 -120 0 -120 0 -3 432 -2 433 -68 -47 c-64 -44 -199 -113
-221 -113 -7 0 -11 38 -11 108 l0 108 34 12 c57 21 178 105 228 160 26 28 58
71 70 97 l22 46 96 -3 95 -3 0 -615z"/>
</g>
</svg>
