<?xml version="1.0" standalone="no"?>
<!DOCTYPE svg PUBLIC "-//W3C//DTD SVG 20010904//EN"
 "http://www.w3.org/TR/2001/REC-SVG-20010904/DTD/svg10.dtd">
<svg version="1.0" xmlns="http://www.w3.org/2000/svg"
 width="193.000000pt" height="193.000000pt" viewBox="0 0 193.000000 193.000000"
 preserveAspectRatio="xMidYMid meet">
<metadata>
Created by potrace 1.16, written by Peter Selinger 2001-2019
</metadata>
<g transform="translate(0.000000,193.000000) scale(0.100000,-0.100000)"
fill="#000000" stroke="none">
<path d="M845 1920 c-221 -31 -410 -126 -561 -282 -131 -136 -203 -261 -249
-433 -37 -135 -39 -327 -6 -455 50 -199 116 -315 261 -460 143 -143 259 -209
455 -261 124 -33 326 -30 460 5 347 93 611 364 697 713 30 123 30 313 0 436
-60 244 -205 451 -408 584 -100 65 -220 116 -323 138 -91 19 -248 26 -326 15z
m465 -470 l0 -110 -219 0 -219 0 -11 -67 c-7 -38 -14 -83 -17 -100 l-6 -33 42
15 c23 8 76 15 116 15 98 0 168 -27 240 -92 135 -124 170 -333 86 -511 -43
-92 -100 -150 -190 -194 -74 -37 -78 -38 -186 -38 -90 1 -122 5 -166 23 -77
30 -132 73 -173 135 -34 51 -76 162 -65 172 7 7 143 24 194 25 39 0 41 -2 53
-40 26 -87 118 -142 200 -120 104 28 159 182 116 326 -39 131 -196 167 -304
69 l-37 -34 -93 14 c-51 8 -95 16 -98 18 -4 4 102 591 112 625 3 9 75 12 315
12 l310 0 0 -110z"/>
</g>
</svg>
