<?xml version="1.0" standalone="no"?>
<!DOCTYPE svg PUBLIC "-//W3C//DTD SVG 20010904//EN"
 "http://www.w3.org/TR/2001/REC-SVG-20010904/DTD/svg10.dtd">
<svg version="1.0" xmlns="http://www.w3.org/2000/svg"
 width="193.000000pt" height="193.000000pt" viewBox="0 0 193.000000 193.000000"
 preserveAspectRatio="xMidYMid meet">
<metadata>
Created by potrace 1.16, written by Peter Selinger 2001-2019
</metadata>
<g transform="translate(0.000000,193.000000) scale(0.100000,-0.100000)"
fill="#000000" stroke="none">
<path d="M849 1920 c-396 -49 -724 -344 -821 -737 -30 -123 -30 -324 0 -440
109 -423 454 -714 877 -740 719 -43 1228 684 942 1347 -92 212 -279 400 -492
495 -142 62 -354 94 -506 75z m461 -475 l0 -115 -219 0 -219 0 -10 -47 c-6
-27 -14 -70 -18 -97 -6 -44 -5 -49 11 -42 91 35 204 32 291 -8 195 -89 277
-359 174 -571 -81 -167 -216 -244 -408 -232 -111 7 -196 41 -262 107 -42 42
-93 137 -105 196 l-6 31 108 11 c59 7 113 12 119 12 6 0 17 -20 24 -44 13 -48
59 -99 103 -115 73 -28 156 5 196 79 49 88 37 263 -22 318 -73 69 -188 67
-267 -4 l-38 -34 -91 13 c-50 8 -93 16 -96 19 -4 3 70 411 106 586 l10 52 310
0 309 0 0 -115z"/>
</g>
</svg>
