<?xml version="1.0" standalone="no"?>
<!DOCTYPE svg PUBLIC "-//W3C//DTD SVG 20010904//EN"
 "http://www.w3.org/TR/2001/REC-SVG-20010904/DTD/svg10.dtd">
<svg version="1.0" xmlns="http://www.w3.org/2000/svg"
 width="300.000000pt" height="300.000000pt" viewBox="0 0 300.000000 300.000000"
 preserveAspectRatio="xMidYMid meet">
<metadata>
Created by potrace 1.16, written by Peter Selinger 2001-2019
</metadata>
<g transform="translate(0.000000,300.000000) scale(0.100000,-0.100000)"
fill="#000000" stroke="none">
<path d="M1350 2994 c-517 -66 -933 -344 -1172 -784 -272 -502 -225 -1145 116
-1600 87 -116 251 -273 366 -350 513 -345 1162 -344 1681 1 114 76 312 271
385 379 356 526 361 1178 12 1701 -86 130 -273 316 -403 402 -171 113 -345
185 -548 228 -90 19 -356 33 -437 23z m220 -198 c48 -17 80 -67 80 -125 0 -26
5 -52 12 -59 7 -7 35 -12 63 -12 63 0 94 -16 124 -63 l24 -37 121 0 c67 0 138
-5 158 -10 50 -14 97 -55 119 -105 18 -38 19 -88 19 -913 0 -847 -1 -874 -20
-911 -24 -48 -70 -87 -118 -101 -55 -15 -1268 -14 -1313 2 -46 15 -80 43 -106
86 l-23 37 0 888 c0 979 -4 915 64 975 49 42 91 52 233 52 112 0 122 2 128 19
3 11 22 34 41 50 30 27 42 31 94 31 69 0 80 11 80 83 0 99 106 154 220 113z"/>
<path d="M1457 2694 c-4 -4 -7 -27 -7 -51 0 -55 -22 -98 -63 -123 l-32 -20
145 1 c87 0 137 4 125 9 -44 18 -68 57 -74 122 l-6 63 -40 3 c-23 2 -44 0 -48
-4z"/>
<path d="M835 2365 l-25 -24 0 -866 0 -866 25 -24 24 -25 636 0 c396 0 643 4
655 10 10 5 23 24 29 41 15 43 16 1686 1 1725 -19 49 -35 53 -177 54 l-133 0
0 -24 c0 -34 -40 -88 -80 -108 -31 -16 -66 -18 -290 -17 -178 0 -266 4 -290
13 -41 15 -80 67 -80 107 l0 29 -135 0 c-131 0 -137 -1 -160 -25z m817 -207
c79 -36 142 -98 181 -177 29 -60 32 -73 32 -161 -1 -83 -4 -102 -28 -151 -41
-84 -98 -143 -175 -181 -62 -31 -74 -33 -167 -33 -95 0 -103 2 -163 34 -72 39
-139 108 -172 178 -34 70 -39 198 -11 276 35 101 125 191 229 230 70 26 199
19 274 -15z m-74 -748 c114 -27 207 -101 257 -205 26 -53 29 -71 30 -155 0
-88 -3 -101 -33 -162 -105 -215 -355 -277 -556 -138 -58 39 -119 130 -136 201
-21 86 -8 196 31 269 79 149 246 227 407 190z"/>
<path d="M1439 2083 c-15 -2 -51 -19 -80 -36 -169 -101 -169 -353 0 -454 181
-108 404 17 405 227 1 171 -147 290 -325 263z m189 -144 l22 -36 -21 -19 c-22
-20 -98 -138 -125 -196 -10 -21 -21 -38 -25 -38 -3 0 -37 34 -75 76 l-68 76
37 35 37 34 23 -27 23 -27 31 50 c38 61 103 128 113 116 4 -4 16 -24 28 -44z"/>
<path d="M1453 1309 c-66 -12 -110 -37 -153 -87 -95 -107 -91 -262 9 -362 86
-86 200 -104 310 -49 73 37 114 86 137 166 53 184 -115 368 -303 332z m171
-155 l25 -37 -33 -41 c-19 -23 -55 -79 -82 -126 -26 -47 -50 -87 -52 -90 -5
-6 -142 138 -142 148 0 4 16 20 36 36 l36 28 23 -22 23 -21 23 38 c27 44 98
123 110 123 5 0 19 -16 33 -36z"/>
<path d="M1232 2373 c3 -17 25 -18 266 -21 257 -2 262 -2 262 18 0 20 -6 20
-266 20 -247 0 -265 -1 -262 -17z"/>
</g>
</svg>
