<?xml version="1.0" standalone="no"?>
<!DOCTYPE svg PUBLIC "-//W3C//DTD SVG 20010904//EN"
 "http://www.w3.org/TR/2001/REC-SVG-20010904/DTD/svg10.dtd">
<svg version="1.0" xmlns="http://www.w3.org/2000/svg"
 width="192.000000pt" height="193.000000pt" viewBox="0 0 192.000000 193.000000"
 preserveAspectRatio="xMidYMid meet">
<metadata>
Created by potrace 1.16, written by Peter Selinger 2001-2019
</metadata>
<g transform="translate(0.000000,193.000000) scale(0.100000,-0.100000)"
fill="#000000" stroke="none">
<path d="M843 1920 c-382 -54 -694 -315 -803 -675 -64 -209 -51 -460 33 -655
54 -125 94 -185 189 -285 135 -142 274 -225 464 -277 105 -28 343 -31 446 -5
185 46 337 133 484 274 94 91 132 144 185 258 48 102 79 263 79 411 0 114 -28
282 -60 364 -90 229 -314 441 -565 536 -134 50 -322 72 -452 54z m306 -382
c80 -40 133 -105 161 -197 11 -35 19 -65 18 -67 -4 -3 -178 -24 -204 -24 -16
0 -26 11 -39 46 -21 54 -62 84 -118 84 -103 0 -164 -88 -182 -265 l-7 -70 28
27 c75 70 197 91 304 53 79 -28 179 -128 209 -210 28 -73 37 -189 22 -270 -23
-125 -104 -229 -219 -283 -50 -24 -69 -27 -162 -27 -93 0 -111 3 -163 27 -124
58 -207 174 -244 340 -24 106 -24 375 0 487 36 168 109 277 227 340 76 41 126
51 224 46 66 -3 91 -9 145 -37z"/>
<path d="M892 954 c-69 -35 -97 -104 -90 -220 8 -127 72 -204 171 -204 44 0
54 4 87 38 50 50 67 125 52 231 -10 76 -28 109 -74 144 -36 27 -105 32 -146
11z"/>
</g>
</svg>
