<?xml version="1.0" standalone="no"?>
<!DOCTYPE svg PUBLIC "-//W3C//DTD SVG 20010904//EN"
 "http://www.w3.org/TR/2001/REC-SVG-20010904/DTD/svg10.dtd">
<svg version="1.0" xmlns="http://www.w3.org/2000/svg"
 width="193.000000pt" height="192.000000pt" viewBox="0 0 193.000000 192.000000"
 preserveAspectRatio="xMidYMid meet">
<metadata>
Created by potrace 1.16, written by Peter Selinger 2001-2019
</metadata>
<g transform="translate(0.000000,192.000000) scale(0.100000,-0.100000)"
fill="#000000" stroke="none">
<path d="M820 1913 c-192 -32 -371 -120 -513 -252 -146 -137 -237 -302 -288
-521 -18 -77 -15 -288 5 -377 86 -388 390 -681 775 -748 315 -56 626 45 853
276 369 377 365 975 -11 1350 -142 142 -315 232 -515 268 -57 10 -253 13 -306
4z m460 -773 l0 -390 75 0 75 0 0 -105 0 -105 -75 0 -74 0 -3 -122 -3 -123
-115 0 -115 0 -3 122 -3 123 -244 0 -245 0 0 108 0 108 254 373 c140 204 260
379 266 387 9 10 37 14 111 14 l99 0 0 -390z"/>
<path d="M907 950 c-70 -104 -127 -192 -127 -195 0 -3 59 -5 130 -5 l130 0 0
195 c0 107 -2 195 -3 195 -2 0 -61 -85 -130 -190z"/>
</g>
</svg>
