<?xml version="1.0" standalone="no"?>
<!DOCTYPE svg PUBLIC "-//W3C//DTD SVG 20010904//EN"
 "http://www.w3.org/TR/2001/REC-SVG-20010904/DTD/svg10.dtd">
<svg version="1.0" xmlns="http://www.w3.org/2000/svg"
 width="301.000000pt" height="300.000000pt" viewBox="0 0 301.000000 300.000000"
 preserveAspectRatio="xMidYMid meet">
<metadata>
Created by potrace 1.16, written by Peter Selinger 2001-2019
</metadata>
<g transform="translate(0.000000,300.000000) scale(0.100000,-0.100000)"
fill="#000000" stroke="none">
<path d="M1355 2990 c-895 -97 -1506 -937 -1316 -1809 63 -289 192 -523 405
-737 308 -309 691 -459 1120 -441 222 9 403 55 601 152 419 206 719 601 812
1070 27 137 25 435 -5 572 -43 198 -129 399 -240 558 -83 121 -277 309 -399
389 -241 158 -491 239 -773 250 -69 2 -161 1 -205 -4z m92 -137 c44 -48 526
-855 539 -904 6 -25 9 -58 6 -74 -8 -46 -79 -105 -212 -179 -69 -38 -127 -71
-129 -72 -2 -2 6 -38 19 -80 48 -163 10 -217 -215 -304 -33 -13 -63 -26 -67
-30 -5 -3 31 -19 80 -34 153 -50 190 -77 199 -144 4 -28 -1 -53 -18 -88 -20
-44 -23 -69 -28 -244 -5 -163 -9 -201 -25 -233 -38 -77 -116 -118 -251 -132
-53 -6 -561 36 -621 51 -42 10 -48 83 -9 98 7 2 122 -7 256 -20 264 -27 424
-28 473 -4 16 8 39 28 50 43 19 27 21 40 18 168 -3 150 7 233 38 304 l19 45
-22 14 c-12 7 -100 39 -195 71 -183 60 -205 74 -184 120 7 16 43 34 138 69
177 66 269 110 278 131 4 11 -6 62 -24 121 -23 75 -29 108 -22 121 6 10 78 56
161 103 169 94 197 117 187 153 -3 13 -63 118 -132 233 -326 537 -384 635
-390 658 -4 17 0 30 15 45 27 27 37 26 68 -6z m723 -1213 c15 -16 46 -65 69
-109 104 -201 108 -407 11 -606 -67 -138 -116 -180 -162 -138 -25 23 -23 31
23 103 91 140 124 285 96 422 -18 89 -56 179 -104 246 -38 54 -39 59 -17 90
21 30 51 28 84 -8z m-155 -122 c16 -12 46 -59 68 -106 68 -146 61 -289 -21
-432 -20 -35 -49 -71 -64 -79 -24 -14 -28 -14 -47 3 -29 26 -26 50 14 115 78
130 81 236 9 377 -24 48 -44 93 -44 100 0 12 37 44 51 44 3 0 19 -10 34 -22z
m-110 -172 c24 -49 29 -71 28 -125 0 -73 -22 -143 -55 -178 -25 -27 -45 -29
-70 -6 -23 21 -23 39 2 91 25 52 25 124 0 181 -33 71 -21 104 35 99 26 -3 34
-12 60 -62z"/>
</g>
</svg>
