<?xml version="1.0" standalone="no"?>
<!DOCTYPE svg PUBLIC "-//W3C//DTD SVG 20010904//EN"
 "http://www.w3.org/TR/2001/REC-SVG-20010904/DTD/svg10.dtd">
<svg version="1.0" xmlns="http://www.w3.org/2000/svg"
 width="300.000000pt" height="301.000000pt" viewBox="0 0 300.000000 301.000000"
 preserveAspectRatio="xMidYMid meet">
<metadata>
Created by potrace 1.16, written by Peter Selinger 2001-2019
</metadata>
<g transform="translate(0.000000,301.000000) scale(0.100000,-0.100000)"
fill="#000000" stroke="none">
<path d="M1310 2993 c-272 -43 -500 -133 -710 -281 -143 -101 -325 -305 -417
-469 -56 -101 -129 -314 -160 -468 -27 -135 -24 -435 5 -565 36 -159 101 -346
155 -442 211 -376 580 -640 1027 -735 122 -26 459 -26 580 1 168 37 385 125
518 212 292 190 509 472 615 799 141 430 75 899 -179 1288 -76 116 -278 326
-380 395 -192 129 -404 217 -612 252 -106 19 -361 26 -442 13z m1061 -676 c66
-32 132 -99 162 -165 22 -47 22 -52 22 -677 l0 -630 -23 -46 c-37 -75 -87
-125 -160 -161 l-67 -33 -820 0 -820 0 -67 33 c-73 36 -123 86 -160 161 l-23
46 0 630 c0 622 0 631 21 676 26 56 82 120 132 151 76 47 78 47 937 45 l810
-2 56 -28z"/>
<path d="M705 2243 c-49 -11 -83 -29 -123 -67 -51 -49 -72 -109 -72 -208 l0
-68 975 0 975 0 0 68 c0 95 -22 161 -69 210 -72 74 -46 72 -905 71 -419 -1
-770 -3 -781 -6z"/>
<path d="M512 1338 c3 -456 3 -464 25 -505 27 -50 86 -100 133 -113 21 -6 343
-10 823 -10 861 0 827 -2 890 58 16 15 39 45 50 67 22 39 22 50 25 503 l3 462
-976 0 -976 0 3 -462z m457 297 c28 -14 61 -68 61 -100 0 -32 -33 -86 -61
-100 -106 -55 -218 51 -164 155 28 55 105 76 164 45z m591 0 c34 -17 60 -62
60 -100 0 -119 -173 -159 -224 -51 -20 43 -20 59 0 102 28 60 102 81 164 49z
m553 4 c41 -20 77 -70 77 -104 0 -55 -67 -115 -129 -115 -64 0 -111 48 -111
115 0 37 26 87 51 101 30 16 83 18 112 3z m-1139 -480 c82 -64 64 -181 -33
-210 -77 -23 -157 44 -147 124 10 88 115 137 180 86z m602 -12 c70 -64 49
-165 -41 -196 -35 -12 -45 -11 -77 2 -70 29 -96 108 -56 167 47 69 117 80 174
27z m562 1 c62 -51 68 -96 21 -151 -63 -74 -161 -69 -194 10 -53 125 70 224
173 141z"/>
</g>
</svg>
