<?xml version="1.0" standalone="no"?>
<!DOCTYPE svg PUBLIC "-//W3C//DTD SVG 20010904//EN"
 "http://www.w3.org/TR/2001/REC-SVG-20010904/DTD/svg10.dtd">
<svg version="1.0" xmlns="http://www.w3.org/2000/svg"
 width="193.000000pt" height="193.000000pt" viewBox="0 0 193.000000 193.000000"
 preserveAspectRatio="xMidYMid meet">
<metadata>
Created by potrace 1.16, written by Peter Selinger 2001-2019
</metadata>
<g transform="translate(0.000000,193.000000) scale(0.100000,-0.100000)"
fill="#000000" stroke="none">
<path d="M839 1920 c-79 -10 -215 -46 -246 -66 -12 -8 -27 -14 -33 -14 -13 0
-133 -69 -168 -97 -68 -53 -152 -128 -152 -136 0 -8 -51 -75 -92 -121 -10 -11
-35 -56 -57 -100 -114 -231 -115 -605 -2 -843 22 -45 48 -90 58 -100 10 -10
34 -41 53 -67 120 -166 316 -295 535 -352 111 -29 343 -26 460 5 91 24 257 95
285 122 8 8 33 27 55 43 77 57 188 172 234 241 51 78 71 121 97 213 9 34 20
62 24 62 15 0 35 159 34 265 -1 105 -17 218 -34 240 -4 6 -18 44 -30 85 -54
182 -233 391 -435 509 -146 85 -403 134 -586 111z m319 -982 l-3 -613 -117 -3
-118 -3 0 441 0 440 -62 -46 c-53 -39 -211 -124 -232 -124 -3 0 -6 50 -6 110
0 82 3 110 13 110 7 0 47 21 90 46 92 53 183 141 215 207 l23 47 100 0 99 0
-2 -612z"/>
</g>
</svg>
