<?xml version="1.0" standalone="no"?>
<!DOCTYPE svg PUBLIC "-//W3C//DTD SVG 20010904//EN"
 "http://www.w3.org/TR/2001/REC-SVG-20010904/DTD/svg10.dtd">
<svg version="1.0" xmlns="http://www.w3.org/2000/svg"
 width="192.000000pt" height="193.000000pt" viewBox="0 0 192.000000 193.000000"
 preserveAspectRatio="xMidYMid meet">
<metadata>
Created by potrace 1.16, written by Peter Selinger 2001-2019
</metadata>
<g transform="translate(0.000000,193.000000) scale(0.100000,-0.100000)"
fill="#000000" stroke="none">
<path d="M830 1920 c-137 -19 -290 -79 -415 -163 -91 -60 -222 -201 -278 -295
-224 -380 -170 -851 133 -1162 326 -336 825 -393 1218 -138 42 28 122 96 177
152 99 100 138 157 193 285 29 67 62 261 62 366 0 103 -33 298 -61 367 -99
238 -330 454 -576 539 -141 48 -319 68 -453 49z m287 -361 c101 -38 184 -140
208 -255 l6 -31 -110 -12 c-61 -7 -114 -10 -119 -7 -5 3 -12 19 -16 36 -3 17
-19 45 -35 61 -24 24 -38 29 -76 29 -113 0 -164 -73 -190 -272 l-6 -47 51 34
c66 45 120 59 197 52 147 -14 270 -124 309 -277 22 -86 15 -223 -16 -302 -30
-80 -104 -159 -188 -200 -62 -31 -73 -33 -172 -33 -93 0 -111 3 -163 27 -75
35 -157 114 -191 183 -57 117 -70 191 -69 405 0 167 3 206 21 272 52 191 142
295 297 344 66 21 195 17 262 -7z"/>
<path d="M895 956 c-61 -27 -94 -92 -95 -187 -1 -157 100 -267 213 -230 82 27
121 137 96 276 -21 124 -114 185 -214 141z"/>
</g>
</svg>
