<?xml version="1.0" standalone="no"?>
<!DOCTYPE svg PUBLIC "-//W3C//DTD SVG 20010904//EN"
 "http://www.w3.org/TR/2001/REC-SVG-20010904/DTD/svg10.dtd">
<svg version="1.0" xmlns="http://www.w3.org/2000/svg"
 width="192.000000pt" height="193.000000pt" viewBox="0 0 192.000000 193.000000"
 preserveAspectRatio="xMidYMid meet">
<metadata>
Created by potrace 1.16, written by Peter Selinger 2001-2019
</metadata>
<g transform="translate(0.000000,193.000000) scale(0.100000,-0.100000)"
fill="#000000" stroke="none">
<path d="M875 1924 c-281 -41 -448 -123 -621 -307 -170 -181 -254 -395 -254
-652 0 -257 82 -468 254 -651 191 -205 424 -306 706 -308 194 0 378 54 528
155 112 76 133 95 206 188 156 196 219 373 220 616 0 144 -15 226 -64 354 -58
149 -190 330 -294 402 -33 24 -66 48 -73 55 -15 14 -122 67 -193 94 -102 39
-320 68 -415 54z m217 -377 c32 -16 78 -47 103 -70 80 -74 108 -209 64 -319
-25 -63 -40 -82 -97 -118 l-44 -27 55 -22 c58 -24 103 -69 134 -138 10 -21 23
-41 28 -45 13 -10 12 -177 -1 -186 -6 -4 -16 -22 -22 -41 -17 -49 -78 -137
-112 -161 -70 -50 -162 -83 -239 -88 -217 -12 -378 97 -431 291 -7 26 -10 50
-7 53 8 8 220 33 229 28 5 -3 8 -16 8 -28 0 -33 62 -110 106 -131 43 -20 110
-16 150 10 14 9 36 40 50 68 30 66 32 141 3 207 -17 40 -30 53 -67 71 -41 20
-51 21 -106 12 -34 -6 -62 -9 -64 -8 -2 2 3 45 10 96 l13 94 48 7 c62 9 105
35 128 78 35 65 16 156 -40 184 -66 34 -167 9 -193 -49 -6 -14 -14 -25 -18
-25 -4 0 -11 -16 -14 -35 -7 -34 -9 -35 -39 -30 -18 3 -66 12 -107 18 l-75 13
3 34 c3 40 42 129 72 167 65 83 174 124 320 120 80 -2 104 -7 152 -30z"/>
</g>
</svg>
