<?xml version="1.0" standalone="no"?>
<!DOCTYPE svg PUBLIC "-//W3C//DTD SVG 20010904//EN"
 "http://www.w3.org/TR/2001/REC-SVG-20010904/DTD/svg10.dtd">
<svg version="1.0" xmlns="http://www.w3.org/2000/svg"
 width="193.000000pt" height="193.000000pt" viewBox="0 0 193.000000 193.000000"
 preserveAspectRatio="xMidYMid meet">
<metadata>
Created by potrace 1.16, written by Peter Selinger 2001-2019
</metadata>
<g transform="translate(0.000000,193.000000) scale(0.100000,-0.100000)"
fill="#000000" stroke="none">
<path d="M890 1924 c-261 -30 -455 -126 -626 -307 -250 -266 -324 -636 -198
-988 66 -185 194 -350 353 -458 381 -259 911 -215 1219 99 288 294 368 699
212 1074 -59 141 -185 309 -285 378 -33 23 -62 45 -65 48 -28 33 -219 112
-329 135 -78 16 -221 26 -281 19z m200 -377 c132 -62 189 -138 197 -266 8
-108 -35 -196 -119 -244 -21 -11 -38 -24 -38 -28 0 -5 17 -11 37 -15 47 -9
123 -83 158 -155 20 -43 25 -68 25 -130 0 -43 -4 -80 -9 -84 -5 -3 -12 -18
-16 -33 -3 -15 -25 -57 -48 -92 -90 -138 -269 -199 -457 -154 -142 33 -244
135 -279 278 -7 27 -11 50 -9 51 4 3 181 25 206 25 15 0 24 -9 30 -33 14 -49
68 -111 110 -128 36 -14 101 -11 139 8 75 35 107 183 63 282 -11 24 -28 50
-38 57 -32 26 -89 35 -145 25 -28 -5 -53 -8 -55 -7 -1 2 4 43 11 92 l12 89 63
16 c34 9 72 25 83 35 70 63 64 190 -11 229 -65 33 -166 7 -192 -50 -6 -14 -15
-25 -19 -25 -5 0 -11 -16 -15 -35 -7 -40 0 -39 -124 -16 -109 20 -109 20 -71
122 55 145 192 223 376 215 59 -3 94 -10 135 -29z"/>
</g>
</svg>
