<?xml version="1.0" standalone="no"?>
<!DOCTYPE svg PUBLIC "-//W3C//DTD SVG 20010904//EN"
 "http://www.w3.org/TR/2001/REC-SVG-20010904/DTD/svg10.dtd">
<svg version="1.0" xmlns="http://www.w3.org/2000/svg"
 width="473.000000pt" height="273.000000pt" viewBox="0 0 473.000000 273.000000"
 preserveAspectRatio="xMidYMid meet">
<metadata>
Created by potrace 1.16, written by Peter Selinger 2001-2019
</metadata>
<g transform="translate(0.000000,273.000000) scale(0.100000,-0.100000)"
fill="#000000" stroke="none">
<path d="M905 2720 c-44 -4 -92 -12 -106 -17 -39 -17 -85 -76 -104 -135 -29
-88 -72 -165 -191 -341 -63 -92 -129 -198 -148 -235 -86 -172 -144 -448 -166
-799 -6 -97 -13 -139 -26 -162 -20 -33 -76 -61 -126 -61 l-31 0 6 -52 c52
-463 50 -452 73 -475 20 -20 58 -34 131 -49 28 -6 32 -3 41 27 6 19 13 95 15
169 5 146 20 218 67 318 81 175 268 326 466 376 79 20 241 21 319 1 235 -60
422 -230 501 -456 28 -81 29 -92 30 -269 1 -234 -1 -217 33 -234 25 -13 125
-16 706 -16 483 -1 681 2 689 10 7 7 11 77 12 203 0 218 8 258 75 397 34 70
58 101 133 175 74 74 107 99 176 132 111 54 193 73 316 73 188 0 336 -61 469
-194 92 -91 144 -172 182 -285 22 -64 27 -101 32 -235 9 -198 7 -196 146 -196
l92 0 7 129 c9 167 0 287 -30 384 -19 63 -24 100 -24 191 0 133 -21 216 -72
287 -59 81 -298 298 -528 478 -303 238 -774 600 -830 638 -153 104 -383 186
-596 213 -94 12 -1623 21 -1739 10z m428 -159 c8 -8 -13 -88 -82 -313 -52
-167 -102 -319 -112 -339 -24 -48 -81 -96 -126 -107 -21 -5 -135 -9 -254 -8
-187 1 -219 4 -242 19 -37 24 -35 68 7 170 78 189 176 325 341 475 60 55 111
86 180 109 49 16 270 12 288 -6z m1212 -1 c222 -9 281 -21 390 -75 95 -48 180
-123 332 -294 156 -176 193 -220 193 -236 0 -7 -30 -17 -72 -25 -40 -7 -95
-19 -121 -27 -58 -17 -71 -43 -63 -124 l7 -57 -33 -5 c-62 -10 -1708 39 -1741
52 -43 17 -62 49 -61 105 1 72 129 560 165 632 6 12 27 31 47 42 36 21 48 22
397 21 198 0 450 -4 560 -9z"/>
<path d="M835 1196 c-220 -51 -393 -219 -450 -437 -81 -306 110 -638 422 -736
255 -79 555 55 687 307 48 90 69 177 69 280 -1 273 -166 498 -423 574 -77 23
-231 29 -305 12z m318 -184 c158 -73 257 -229 257 -402 -1 -214 -170 -410
-388 -450 -185 -33 -389 96 -474 301 -31 77 -31 220 1 301 49 126 155 228 277
269 47 15 80 18 160 16 88 -3 109 -8 167 -35z"/>
<path d="M3653 1196 c-82 -19 -177 -67 -249 -125 -70 -56 -153 -174 -184 -262
-31 -89 -39 -250 -16 -338 53 -208 217 -383 418 -446 296 -93 627 87 734 400
31 92 38 230 15 325 -50 209 -205 373 -411 434 -78 24 -230 29 -307 12z m328
-188 c223 -106 312 -369 201 -597 -38 -78 -132 -170 -212 -209 -179 -86 -339
-56 -485 92 -80 81 -118 150 -136 248 -38 205 95 421 301 490 43 14 78 17 156
15 92 -3 109 -7 175 -39z"/>
</g>
</svg>
