<?xml version="1.0" standalone="no"?>
<!DOCTYPE svg PUBLIC "-//W3C//DTD SVG 20010904//EN"
 "http://www.w3.org/TR/2001/REC-SVG-20010904/DTD/svg10.dtd">
<svg version="1.0" xmlns="http://www.w3.org/2000/svg"
 width="299.000000pt" height="299.000000pt" viewBox="0 0 299.000000 299.000000"
 preserveAspectRatio="xMidYMid meet">
<metadata>
Created by potrace 1.16, written by Peter Selinger 2001-2019
</metadata>
<g transform="translate(0.000000,299.000000) scale(0.100000,-0.100000)"
fill="#000000" stroke="none">
<path d="M1235 2974 c-238 -42 -478 -151 -670 -304 -89 -70 -231 -223 -298
-318 -305 -436 -352 -1015 -122 -1499 74 -156 162 -279 290 -409 210 -212 445
-345 728 -412 102 -24 131 -26 322 -27 224 0 288 8 460 62 118 37 348 154 447
228 214 161 401 409 501 665 124 316 128 714 12 1040 -105 294 -317 567 -570
737 -93 62 -320 169 -420 197 -152 43 -254 56 -434 55 -95 0 -200 -7 -246 -15z
m464 -766 c180 -38 321 -98 486 -207 39 -25 75 -48 82 -51 48 -21 477 -403
501 -446 19 -37 1 -63 -159 -219 -160 -157 -244 -223 -399 -316 -292 -174
-466 -229 -720 -229 -213 0 -354 36 -573 147 -70 36 -179 102 -242 147 -181
129 -413 345 -454 423 -18 36 3 64 160 218 205 199 358 311 574 414 127 62
174 77 365 117 174 36 219 37 379 2z"/>
<path d="M1355 2123 c-11 -2 -83 -24 -160 -48 -278 -88 -508 -234 -775 -493
l-105 -102 129 -125 c227 -219 454 -369 690 -456 86 -32 111 -37 117 -27 16
24 9 36 -33 58 -192 100 -312 288 -325 511 -7 122 14 221 70 330 69 137 143
205 323 299 121 64 123 65 69 53z"/>
<path d="M1617 2121 c4 -4 55 -37 113 -72 187 -114 296 -239 331 -380 29 -119
33 -199 13 -312 -20 -119 -49 -183 -119 -266 -65 -76 -125 -119 -287 -209 -73
-41 -126 -72 -118 -69 9 3 52 15 95 27 244 66 406 137 555 240 14 10 43 28 64
40 59 32 177 131 301 251 l110 107 -100 99 c-101 99 -261 232 -325 270 -19 11
-80 48 -135 82 -55 34 -141 77 -191 97 -98 38 -321 107 -307 95z"/>
<path d="M1381 1975 c-95 -21 -165 -60 -241 -131 -86 -81 -126 -156 -146 -271
-13 -73 -13 -101 -3 -172 14 -103 28 -137 86 -219 70 -98 175 -169 295 -197
182 -43 349 7 481 144 101 104 147 214 147 352 0 171 -99 344 -251 437 -99 60
-251 84 -368 57z m247 -244 c138 -71 192 -238 121 -379 -82 -166 -273 -209
-434 -100 -61 42 -104 116 -112 194 l-6 57 29 -7 c16 -4 63 -10 104 -12 65 -4
80 -2 115 18 50 29 94 111 102 192 7 64 18 69 81 37z"/>
</g>
</svg>
