<?xml version="1.0" standalone="no"?>
<!DOCTYPE svg PUBLIC "-//W3C//DTD SVG 20010904//EN"
 "http://www.w3.org/TR/2001/REC-SVG-20010904/DTD/svg10.dtd">
<svg version="1.0" xmlns="http://www.w3.org/2000/svg"
 width="193.000000pt" height="193.000000pt" viewBox="0 0 193.000000 193.000000"
 preserveAspectRatio="xMidYMid meet">
<metadata>
Created by potrace 1.16, written by Peter Selinger 2001-2019
</metadata>
<g transform="translate(0.000000,193.000000) scale(0.100000,-0.100000)"
fill="#000000" stroke="none">
<path d="M845 1920 c-243 -34 -429 -130 -591 -304 -88 -93 -129 -157 -179
-273 -61 -140 -70 -189 -70 -378 0 -148 3 -180 23 -250 32 -112 90 -230 154
-317 192 -257 458 -390 783 -391 110 -1 145 3 228 26 249 68 447 209 579 412
108 166 151 315 151 520 0 244 -71 440 -228 627 -56 67 -77 85 -212 177 -175
119 -434 180 -638 151z m300 -399 c81 -38 125 -78 164 -150 72 -137 46 -299
-75 -460 -25 -33 -111 -126 -192 -208 l-147 -148 228 -3 227 -2 0 -115 0 -115
-409 0 c-226 0 -412 4 -415 8 -10 16 18 111 56 191 38 80 51 96 264 307 247
244 268 274 268 374 0 33 -7 68 -17 87 -42 79 -179 92 -247 24 -18 -18 -32
-47 -41 -85 l-13 -58 -90 6 c-50 4 -106 10 -124 13 -33 5 -33 6 -26 47 30 181
144 288 339 319 72 12 189 -3 250 -32z"/>
</g>
</svg>
