<?xml version="1.0" standalone="no"?>
<!DOCTYPE svg PUBLIC "-//W3C//DTD SVG 20010904//EN"
 "http://www.w3.org/TR/2001/REC-SVG-20010904/DTD/svg10.dtd">
<svg version="1.0" xmlns="http://www.w3.org/2000/svg"
 width="300.000000pt" height="299.000000pt" viewBox="0 0 300.000000 299.000000"
 preserveAspectRatio="xMidYMid meet">
<metadata>
Created by potrace 1.16, written by Peter Selinger 2001-2019
</metadata>
<g transform="translate(0.000000,299.000000) scale(0.100000,-0.100000)"
fill="#000000" stroke="none">
<path d="M1310 2984 c-294 -53 -459 -117 -660 -255 -329 -225 -547 -568 -626
-984 -26 -136 -24 -378 5 -522 118 -606 561 -1060 1166 -1194 134 -30 391 -37
525 -14 250 41 489 140 676 278 97 72 259 238 323 331 192 280 275 543 275
871 0 320 -75 568 -255 841 -148 224 -424 453 -646 535 -269 99 -327 111 -563
115 -107 1 -206 0 -220 -2z m379 -649 c73 -18 209 -79 273 -123 137 -95 227
-197 289 -327 61 -126 82 -218 82 -365 0 -147 -21 -239 -83 -364 -67 -138
-148 -228 -294 -328 -217 -149 -495 -182 -752 -87 -259 95 -465 336 -525 614
-20 93 -15 275 10 369 87 330 357 572 696 626 76 11 221 4 304 -15z"/>
<path d="M1325 2230 c-192 -51 -356 -171 -454 -334 -110 -183 -131 -429 -55
-635 122 -326 482 -526 824 -457 180 37 301 116 459 302 112 132 161 392 111
590 -24 92 -69 193 -104 232 -144 160 -189 198 -304 256 -130 66 -331 85 -477
46z m475 -410 l20 -39 -24 -19 c-65 -51 -198 -245 -307 -449 l-49 -92 -139
147 -140 147 37 38 36 37 91 -97 90 -96 49 84 c27 46 77 125 112 175 65 94
181 217 196 208 5 -3 17 -23 28 -44z"/>
</g>
</svg>
