<?xml version="1.0" standalone="no"?>
<!DOCTYPE svg PUBLIC "-//W3C//DTD SVG 20010904//EN"
 "http://www.w3.org/TR/2001/REC-SVG-20010904/DTD/svg10.dtd">
<svg version="1.0" xmlns="http://www.w3.org/2000/svg"
 width="195.000000pt" height="194.000000pt" viewBox="0 0 195.000000 194.000000"
 preserveAspectRatio="xMidYMid meet">
<metadata>
Created by potrace 1.16, written by Peter Selinger 2001-2019
</metadata>
<g transform="translate(0.000000,194.000000) scale(0.100000,-0.100000)"
fill="#000000" stroke="none">
<path d="M865 1931 c-78 -10 -186 -37 -255 -63 -200 -76 -401 -260 -500 -458
-76 -152 -104 -277 -103 -450 1 -101 6 -144 28 -224 93 -352 356 -612 705
-698 79 -19 120 -23 245 -22 133 1 160 4 240 28 212 64 406 196 524 356 112
151 173 320 187 515 17 237 -66 488 -226 681 -58 71 -82 91 -213 180 -179 120
-427 181 -632 155z m296 -405 c186 -96 246 -291 153 -492 -37 -79 -109 -168
-265 -325 l-144 -144 225 -5 225 -5 3 -112 3 -113 -409 0 c-225 0 -411 3 -414
6 -11 10 21 123 54 191 28 59 64 100 258 296 235 238 267 280 277 366 7 64
-22 133 -67 156 -42 22 -127 22 -168 1 -41 -21 -59 -50 -75 -116 l-12 -52
-100 7 c-146 10 -147 10 -139 54 10 56 40 138 63 170 33 45 119 104 191 129
56 20 80 22 176 19 98 -3 117 -6 165 -31z"/>
</g>
</svg>
