<?xml version="1.0" standalone="no"?>
<!DOCTYPE svg PUBLIC "-//W3C//DTD SVG 20010904//EN"
 "http://www.w3.org/TR/2001/REC-SVG-20010904/DTD/svg10.dtd">
<svg version="1.0" xmlns="http://www.w3.org/2000/svg"
 width="340.000000pt" height="340.000000pt" viewBox="0 0 340.000000 340.000000"
 preserveAspectRatio="xMidYMid meet">
<metadata>
Created by potrace 1.16, written by Peter Selinger 2001-2019
</metadata>
<g transform="translate(0.000000,340.000000) scale(0.100000,-0.100000)"
fill="#000000" stroke="none">
<path d="M1435 3375 c-252 -41 -503 -144 -715 -293 -121 -85 -316 -279 -403
-402 -80 -113 -184 -319 -226 -448 -112 -340 -112 -727 0 -1067 47 -143 158
-356 247 -475 495 -657 1362 -871 2098 -520 489 234 838 696 936 1238 29 164
29 420 0 584 -123 683 -645 1220 -1330 1369 -129 28 -471 36 -607 14z m-357
-629 c52 -21 76 -24 277 -29 274 -8 332 -19 709 -138 183 -58 186 -60 373
-273 107 -121 133 -163 133 -215 0 -52 -98 -522 -115 -547 -34 -52 -78 -65
-168 -50 -39 6 -48 4 -53 -9 -13 -32 14 -64 78 -93 111 -50 178 -156 178 -281
0 -83 -24 -141 -86 -211 -29 -33 -56 -70 -59 -83 -2 -12 -6 -103 -7 -202 -3
-175 -4 -181 -29 -220 -48 -74 -150 -123 -224 -109 -56 10 -59 20 -48 149 7
76 8 129 1 157 -5 24 -7 73 -3 109 7 81 -1 104 -70 195 -72 93 -88 133 -88
219 0 124 65 224 180 276 39 18 64 36 68 50 9 28 -3 35 -73 43 -73 9 -118 29
-236 109 -54 36 -119 74 -145 83 -161 59 -204 79 -270 123 -40 26 -99 73 -130
103 -66 64 -89 78 -129 78 -24 0 -32 -6 -42 -30 -23 -56 -38 -60 -221 -60
-130 0 -169 3 -178 14 -17 20 -11 820 6 837 18 18 82 26 206 28 92 1 116 -2
165 -23z m794 -1426 c6 -41 -15 -67 -62 -80 -54 -15 -105 -61 -126 -116 -13
-35 -15 -61 -10 -120 l6 -76 -82 -84 c-70 -72 -82 -90 -87 -127 -5 -37 -11
-44 -46 -62 -22 -11 -64 -33 -93 -49 l-54 -28 29 -19 c59 -39 72 -32 243 136
l158 156 79 -6 c134 -10 138 -11 157 -51 9 -20 15 -38 13 -40 -2 -2 -43 -6
-93 -9 -49 -4 -98 -8 -109 -10 -11 -2 -81 -64 -155 -136 -74 -73 -149 -138
-167 -146 -35 -14 -91 -17 -144 -6 -39 7 -129 92 -129 120 0 23 80 100 143
139 32 19 70 58 112 114 36 47 74 97 87 113 18 22 23 43 26 105 3 87 29 155
81 214 38 44 141 98 186 98 29 0 33 -4 37 -30z"/>
<path d="M813 2660 c-28 -11 -25 21 -23 -350 1 -218 5 -307 13 -312 18 -11
146 -9 168 2 18 10 19 24 19 308 0 163 -3 307 -6 319 -3 12 -12 24 -19 27 -29
11 -131 15 -152 6z"/>
<path d="M1110 2600 c-19 -19 -20 -33 -20 -243 0 -265 -1 -261 91 -271 62 -7
63 -8 138 -86 104 -107 168 -147 346 -216 38 -15 121 -57 185 -94 164 -96 195
-110 235 -110 42 0 85 36 85 71 0 47 -46 104 -112 139 -164 86 -217 141 -244
253 -12 49 -14 72 -5 103 24 89 115 128 200 84 64 -32 225 -155 246 -186 28
-43 30 -100 5 -181 -19 -63 -20 -79 -11 -125 15 -70 65 -158 91 -158 29 0 36
22 77 212 64 302 60 330 -71 466 -151 157 -247 219 -411 266 -222 63 -447 96
-662 96 -130 0 -145 -2 -163 -20z"/>
<path d="M1917 2133 c-27 -27 34 -158 92 -196 20 -13 61 -38 92 -56 l57 -31 7
55 c3 30 3 64 0 75 -4 12 -43 52 -88 90 -68 58 -88 70 -118 70 -20 0 -39 -3
-42 -7z"/>
<path d="M2090 1294 c-62 -27 -96 -72 -111 -149 -14 -75 6 -122 88 -201 55
-54 73 -78 73 -99 0 -15 11 -40 25 -56 27 -33 25 -48 -12 -92 -31 -38 -29 -67
7 -112 17 -21 30 -40 30 -42 0 -3 -11 -18 -25 -35 -41 -49 -46 -108 -9 -108 9
0 31 15 50 34 l34 34 0 204 c1 226 3 235 65 277 83 56 107 163 60 258 -28 55
-57 80 -105 90 l-30 6 0 -61 c0 -68 -11 -81 -60 -74 -27 4 -29 8 -35 61 -3 31
-7 61 -8 68 -1 8 -11 8 -37 -3z"/>
</g>
</svg>
