<?xml version="1.0" standalone="no"?>
<!DOCTYPE svg PUBLIC "-//W3C//DTD SVG 20010904//EN"
 "http://www.w3.org/TR/2001/REC-SVG-20010904/DTD/svg10.dtd">
<svg version="1.0" xmlns="http://www.w3.org/2000/svg"
 width="299.000000pt" height="300.000000pt" viewBox="0 0 299.000000 300.000000"
 preserveAspectRatio="xMidYMid meet">
<metadata>
Created by potrace 1.16, written by Peter Selinger 2001-2019
</metadata>
<g transform="translate(0.000000,300.000000) scale(0.100000,-0.100000)"
fill="#000000" stroke="none">
<path d="M1380 2993 c-226 -22 -425 -81 -605 -180 -410 -226 -688 -624 -762
-1088 -19 -124 -13 -421 12 -530 69 -304 198 -538 415 -755 219 -220 476 -356
785 -417 125 -25 415 -25 540 0 209 41 428 135 600 257 110 78 270 238 349
348 116 164 208 378 253 592 26 121 25 440 0 560 -88 411 -303 734 -641 964
-265 180 -640 279 -946 249z m-378 -712 c179 -41 253 -83 532 -299 l155 -121
248 156 c159 100 266 161 298 169 105 28 185 10 185 -41 0 -30 -36 -56 -67
-49 -54 14 -125 -18 -346 -157 -121 -77 -222 -141 -224 -143 -2 -2 40 -38 94
-81 157 -122 304 -265 337 -326 26 -46 31 -68 37 -164 4 -60 14 -132 23 -159
10 -32 16 -85 16 -153 l0 -103 -134 0 -135 0 1 68 c0 38 -3 84 -7 103 -14 66
-63 145 -124 201 -152 141 -375 138 -531 -8 -75 -70 -112 -152 -119 -267 l-6
-92 -412 -3 -412 -2 -26 43 c-14 24 -25 47 -25 50 0 4 173 7 385 7 l385 0 5
28 c30 149 65 222 146 302 159 157 385 193 582 94 72 -37 175 -144 214 -224
17 -36 37 -95 44 -133 11 -60 15 -67 36 -67 21 0 23 4 23 59 0 32 -7 78 -15
101 -8 23 -15 77 -15 119 0 126 -8 143 -128 262 -99 97 -614 507 -775 616
-151 102 -289 133 -598 133 -120 0 -219 4 -219 9 0 4 16 30 36 56 l37 47 206
-5 c157 -4 227 -10 293 -26z m-112 -165 c178 -8 261 -53 423 -230 123 -135
146 -165 169 -218 l17 -36 -67 -11 c-132 -22 -121 -15 -124 -79 -3 -55 -4 -56
-38 -64 -33 -7 -576 3 -913 18 l-148 6 3 47 3 46 145 0 c80 0 301 -4 493 -9
l347 -8 0 25 c0 37 45 85 91 97 l40 11 -81 90 c-105 118 -136 144 -205 175
-78 36 -154 43 -457 44 -173 0 -258 3 -258 10 0 12 27 69 42 87 9 11 243 11
518 -1z m883 -940 c64 -31 120 -89 151 -155 16 -36 21 -65 20 -131 0 -105 -26
-163 -108 -237 -64 -59 -125 -83 -206 -83 -81 0 -142 24 -205 82 -79 72 -110
141 -110 243 0 73 4 86 36 145 40 74 107 132 179 155 69 23 176 14 243 -19z"/>
<path d="M1580 1101 c-125 -40 -190 -152 -155 -267 19 -64 56 -108 117 -138
66 -33 111 -33 179 2 62 31 112 96 122 159 8 51 -12 132 -44 171 -44 57 -155
94 -219 73z"/>
</g>
</svg>
