<?xml version="1.0" standalone="no"?>
<!DOCTYPE svg PUBLIC "-//W3C//DTD SVG 20010904//EN"
 "http://www.w3.org/TR/2001/REC-SVG-20010904/DTD/svg10.dtd">
<svg version="1.0" xmlns="http://www.w3.org/2000/svg"
 width="301.000000pt" height="301.000000pt" viewBox="0 0 301.000000 301.000000"
 preserveAspectRatio="xMidYMid meet">
<metadata>
Created by potrace 1.16, written by Peter Selinger 2001-2019
</metadata>
<g transform="translate(0.000000,301.000000) scale(0.100000,-0.100000)"
fill="#000000" stroke="none">
<path d="M1076 2624 c-233 -52 -450 -214 -549 -411 -52 -101 -70 -194 -71
-353 -1 -172 12 -230 81 -368 73 -146 167 -235 355 -340 73 -40 205 -79 300
-88 140 -12 309 30 459 117 48 27 96 49 107 49 30 0 69 -52 76 -102 4 -24 14
-54 24 -68 9 -14 130 -136 268 -272 167 -165 258 -248 272 -248 40 0 162 120
162 160 0 20 -57 84 -262 293 -257 261 -264 267 -302 267 -27 0 -52 9 -79 27
-54 37 -62 56 -40 93 9 17 20 30 24 30 12 0 97 183 114 245 21 76 32 288 17
318 -6 12 -18 50 -26 84 -62 253 -284 478 -546 553 -100 29 -287 36 -384 14z
m372 -157 c159 -55 303 -174 369 -304 59 -114 77 -190 77 -308 0 -117 -17
-189 -70 -300 -84 -176 -280 -312 -499 -345 -139 -22 -331 23 -440 103 -213
156 -305 342 -292 591 6 127 30 205 94 304 76 118 243 236 393 277 88 24 275
15 368 -18z"/>
<path d="M839 2223 c-75 -71 -114 -133 -105 -168 9 -37 34 -31 83 23 82 88
125 150 121 174 -6 41 -35 32 -99 -29z"/>
<path d="M1641 1591 c-34 -44 -68 -96 -76 -115 -13 -30 -13 -36 1 -47 24 -20
60 8 132 102 70 92 79 131 31 137 -22 3 -35 -9 -88 -77z"/>
</g>
</svg>
